<svg xmlns="http://www.w3.org/2000/svg" xml:space="preserve" width="2000" height="1500" data-id="lg_Bs4CfTftZaMt2VEeSE" data-version="1" viewBox="0 0 2000 1500"><path fill="#fff" stroke="transparent" d="M0 0h2000v1500H0z"/><g data-padding="20"><g transform="translate(-1374.733 -1028.88)scale(2.31275)"><path fill="#c7f2de" d="M1025.975 554.18a214.497 214.497 0 1 0 0 428.994 214.497 214.497 0 1 0 0-428.994"/><rect width="508.725" height="384.2" x="377.059" y="530.642" fill="none" rx="0" ry="0" transform="matrix(.93 -.22 .22 .93 280.578 235.926)"/><path fill="#ff1212" d="M965.73 645.372q-2.252-9.527 1.352-15.579 3.605-6.05 10.592-7.703t13.13 1.593l41.005 173.47 28.27-6.684q5.402-1.277 9.058.715 3.655 1.983 4.632 6.12.976 4.125-1.2 7.66l-36.854 8.712 14.27 60.367q2.255 9.537-1.35 15.588-3.604 6.052-10.592 7.703t-13.128-1.592l-17.8-75.305-93.096 22.007 4.206 17.79q9.388 39.715 1.98 62.275-7.42 22.552-33.795 28.786-15.882 3.754-27.18-4.313t-15.73-26.81q-7.06-29.867 4.867-52.478 11.938-22.612 33.757-32.466l-31.47-133.13q-2.253-9.528 1.351-15.58t10.592-7.703 13.12 1.595l34.472 145.83 93.094-22.006ZM858.342 917.67q2.855 12.077 9.593 17.195 6.747 5.114 16.44 2.823 9.683-2.289 11.855-17.23 2.18-14.942-5.995-50.916l-4.207-17.8q-17.133 8.418-25.113 25.738-7.982 17.31-2.573 40.19m340.39-206.259q14.762 15.634 22.01 46.298 7.247 30.656-3.688 53.206-10.948 22.543-35.725 28.4-14.617 3.456-28.3-4.048-13.68-7.494-18.94-29.74-12.317-52.104 33.393-90.078-10.967-9.492-25.74-6t-24.67 21.266q-9.887 17.77-2.978 46.995l44.69 189.05q-2.122 5.198-10.063 7.075-7.95 1.88-13.874-1.92-5.933-3.797-8.187-13.334l-56.855-240.512q2.122-5.197 10.072-7.077 7.942-1.877 13.874 1.92 5.923 3.8 8.178 13.337l1.651 6.987q10.29-30.28 37.452-36.7 27.171-6.423 46.026 5.222 30.807-18.688 72.108-28.452 8.574-2.026 10.226 4.961l-.77 5.217q-38.45 9.09-69.89 27.927m-20.964 115.666q26.052-6.158 13.81-57.95-6.459-27.318-14.587-41.837-36.538 32.784-26.473 75.361 3.306 13.985 11.14 20.178 7.848 6.201 16.11 4.248"/></g><path fill="transparent" stroke="transparent" stroke-width="2.399" d="M330.757 187.5h1338.486v1125H330.757z"/></g></svg>